<svg width="64" height="64" viewBox="0 0 64 64" fill="none" xmlns="http://www.w3.org/2000/svg">
<path fill-rule="evenodd" clip-rule="evenodd" d="M16.363 6.75569C7.45333 10.7616 1.08492 13.7653 0.711799 14.1379C-0.11183 14.9606 -0.180693 16.9085 0.583586 17.7646C1.73376 19.053 0.571064 19.007 32.0112 19.007C63.4513 19.007 62.2886 19.053 63.4388 17.7646C64.1742 16.9408 64.1317 14.9996 63.3601 14.1792C62.6745 13.4504 32.9092 -0.00300092 31.9886 5.02132e-07C31.6566 0.00100097 24.6253 3.04119 16.363 6.75569ZM5.48504 22.1672C5.19956 22.5296 4.96592 22.9286 4.96592 23.0539C4.96592 23.4826 6.19473 24.5096 6.70758 24.5096C7.21694 24.5096 7.21969 24.5801 7.21969 37.4937V50.4779L6.21476 50.6474C4.70874 50.9016 3.71382 52.0071 3.71382 53.4262C3.71382 54.0558 3.89963 54.8247 4.14054 55.1921C5.04455 56.57 4.09646 56.5247 32.0279 56.5247C55.4123 56.5247 57.9353 56.4859 58.7166 56.1158C60.1275 55.4472 60.7107 53.6779 60.0195 52.1629C59.6559 51.3658 58.8874 50.8568 57.7157 50.6372L56.8027 50.4661V37.488C56.8027 25.2179 56.827 24.5096 57.2477 24.5096C58.5866 24.5096 59.3154 22.7963 58.348 21.9221C57.928 21.5424 55.7359 21.5082 31.9471 21.5082H6.00391L5.48504 22.1672ZM21.744 37.5157V50.5219H17.3617H12.9793V37.5157V24.5096H17.3617H21.744V37.5157ZM36.2683 37.5157V50.5219H32.0112H27.754V37.5157V24.5096H32.0112H36.2683V37.5157ZM51.043 37.5157V50.5219H46.6607H42.2784V37.5157V24.5096H46.6607H51.043V37.5157ZM1.26397 58.666C0.0211436 59.5354 -0.371514 61.2687 0.384751 62.5475C1.31656 64.1228 -0.530025 64.0408 32.352 63.9687L62.2791 63.9032L63.0436 63.1716C64.4089 61.8652 64.2979 59.832 62.8037 58.7693C62.1216 58.2843 61.5759 58.2755 31.9656 58.2755C5.05532 58.2755 1.76206 58.3173 1.26397 58.666Z" fill="#1234E8"/>
</svg>
