<svg width="64" height="67" viewBox="0 0 64 67" fill="none" xmlns="http://www.w3.org/2000/svg">
<path fill-rule="evenodd" clip-rule="evenodd" d="M3.37367 0.407733C2.17416 0.926008 1.35024 1.7118 0.654222 3.00094L0.0887425 4.04796L0.0159911 30.9982C-0.0339118 49.4211 0.0322729 58.3762 0.224531 59.2997C0.600641 61.105 1.93121 62.6522 3.62214 63.2509C4.8466 63.6843 4.89571 63.7414 5.02467 64.8816C5.23978 66.784 5.70493 67 9.59053 67C11.3897 67 13.078 66.8846 13.3422 66.7437C13.8669 66.4639 14.403 65.1847 14.403 64.2126V63.5972H31.7036H49.0041L49.1436 64.8303C49.3666 66.8024 49.7937 67 53.8292 67C57.781 67 58.2651 66.7704 58.2651 64.8978C58.2651 64.2775 58.4003 63.8042 58.5934 63.7498C58.7741 63.6987 59.4536 63.5134 60.1036 63.3381C61.8274 62.8732 63.3846 61.1799 63.7641 59.3575C63.9693 58.3736 64.0341 49.981 63.9837 31.0037L63.912 4.04796L63.3465 3.00094C62.6368 1.68667 61.8129 0.914227 60.568 0.395953C59.7104 0.0386572 56.3231 -0.00793384 31.9431 0.000965824C7.83867 0.00986549 4.17343 0.0622166 3.37367 0.407733ZM55.3093 5.62843C56.5568 6.14801 57.1533 6.69875 57.7676 7.89837C58.2443 8.82917 58.2651 9.81128 58.2651 31.5699C58.2651 53.8662 58.2556 54.29 57.7306 55.371C57.4265 55.9969 56.7283 56.7944 56.1114 57.2203L55.0269 57.9695H31.7411H8.45511L7.36328 57.2494C6.76261 56.8533 6.00303 56.0288 5.67525 55.4171L5.07904 54.3049L5.00602 32.4594C4.95559 17.3095 5.02178 10.1887 5.22218 9.22599C5.55128 7.64709 6.41723 6.48071 7.80295 5.75093C8.72064 5.26747 9.6013 5.24863 31.5491 5.23737C51.4846 5.22742 54.4635 5.27637 55.3093 5.62843ZM9.30004 9.30164C8.93155 9.66914 8.88742 12.0545 8.88742 31.6293C8.88742 48.3264 8.96254 53.6207 9.2026 53.8599C9.65934 54.3151 53.8161 54.3151 54.2728 53.8599C54.5129 53.6207 54.588 48.3314 54.588 31.6513C54.588 10.7727 54.5657 9.73667 54.1076 9.32363C53.6688 8.92785 51.7331 8.89042 31.6702 8.89042C12.0592 8.89042 9.6688 8.9344 9.30004 9.30164ZM24.5149 24.4012C30.5458 27.4905 30.6076 35.982 24.621 38.9634C23.2177 39.6623 22.7008 39.7775 20.9692 39.7775C19.2465 39.7775 18.718 39.661 17.3504 38.9799C14.4385 37.5298 12.8258 34.9599 12.8413 31.794C12.846 30.7862 13.0105 29.5138 13.2064 28.9665C14.0303 26.6646 16.0918 24.6729 18.4467 23.9042C20.1132 23.3602 22.9335 23.5914 24.5149 24.4012ZM37.4968 24.5002C38.2117 25.4058 38.1841 26.0477 37.3965 26.8324C36.9153 27.3122 36.4704 27.475 35.6407 27.475C33.7021 27.475 32.6943 25.8553 33.7225 24.3923C34.0587 23.9138 34.3821 23.8104 35.5419 23.8104C36.753 23.8104 37.0295 23.9081 37.4968 24.5002ZM43.95 24.3332C44.6009 25.0496 44.5265 26.4335 43.8061 27.0149C42.9992 27.6661 41.0864 27.6305 40.4051 26.9515C39.7629 26.3115 39.7164 24.9478 40.3145 24.2892C40.9482 23.5911 43.3021 23.6196 43.95 24.3332ZM50.502 24.3923C51.0654 25.1938 51.0142 26.3251 50.3857 26.9515C49.5956 27.7389 47.6728 27.6745 46.8281 26.8324C46.0404 26.0477 46.0129 25.4058 46.7278 24.5002C47.195 23.9081 47.4716 23.8104 48.6827 23.8104C49.8425 23.8104 50.1658 23.9138 50.502 24.3923ZM19.9908 27.4915C18.831 27.7331 17.8899 28.3912 17.2803 29.3869C16.0903 31.3314 16.3818 33.375 18.0664 34.8916C19.7224 36.3825 21.7834 36.4922 23.5085 35.1811C24.6757 34.2937 25.2322 33.148 25.2322 31.6319C25.2322 28.8861 22.7413 26.9185 19.9908 27.4915ZM37.4059 30.3941C37.6045 30.592 37.8419 31.1273 37.9333 31.5838C38.2976 33.3991 35.6457 34.5003 34.0057 33.2145C33.0344 32.4533 33.0486 31.1244 34.0359 30.3478C34.6066 29.8989 34.9982 29.8065 35.9015 29.907C36.5302 29.9771 37.2073 30.1962 37.4059 30.3941ZM43.5172 30.2514C45.7838 31.8335 43.342 34.7646 40.8474 33.4561C40.0707 33.0488 39.8885 32.7258 39.8837 31.7476C39.8761 30.1661 42.0894 29.2547 43.5172 30.2514ZM50.2189 30.3734C51.7257 31.5545 50.6888 33.7571 48.6257 33.7571C47.4464 33.7571 46.7443 33.3616 46.4215 32.5151C45.6622 30.525 48.4247 28.9668 50.2189 30.3734ZM37.3965 36.7555C38.1135 37.4699 38.1815 37.8756 37.7445 38.8312C37.169 40.09 34.9397 40.3774 33.7906 39.3411C33.5148 39.0925 33.3136 38.5496 33.3136 38.0546C33.3136 36.2585 36.0307 35.3941 37.3965 36.7555ZM43.5466 36.3692C44.2578 36.7485 44.6266 38.0031 44.2489 38.758C43.6057 40.044 41.4961 40.3691 40.3725 39.3555C39.7104 38.7585 39.7277 37.3115 40.4051 36.6364C40.9792 36.0642 42.7004 35.9179 43.5466 36.3692ZM50.2189 36.6555C51.0559 37.3115 51.1657 38.6815 50.434 39.3411C49.2521 40.407 47.0054 40.0767 46.4567 38.7561C46.1058 37.912 46.4278 36.8246 47.1538 36.4037C47.9488 35.9428 49.469 36.0676 50.2189 36.6555Z" fill="#1234E8"/>
</svg>
