<svg width="50" height="64" viewBox="0 0 50 64" fill="none" xmlns="http://www.w3.org/2000/svg">
<path fill-rule="evenodd" clip-rule="evenodd" d="M21.2224 0.339179C15.1603 1.54535 9.8 5.64538 7.16708 11.0904C5.44422 14.6531 5.06633 16.6212 5.04372 22.1488C5.02789 26.0162 5.07889 26.6553 5.40201 26.6233C5.6093 26.6027 7.45352 26.2926 9.50025 25.934C11.5472 25.5753 13.3163 25.282 13.4319 25.282C13.5472 25.282 13.6817 23.4492 13.7304 21.2088L13.8191 17.1356L14.7575 15.1749C18.9354 6.44598 31.0646 6.44598 35.2425 15.1749L36.1809 17.1356L36.2696 21.2088C36.3183 23.4492 36.4508 25.282 36.5636 25.282C36.6766 25.282 38.4457 25.5732 40.4952 25.9294C42.5445 26.2854 44.3907 26.5954 44.598 26.6187C44.9226 26.6548 44.9691 25.9991 44.9334 21.8981C44.8842 16.2523 44.5181 14.454 42.6628 10.7438C40.6063 6.63147 36.1648 2.69462 31.907 1.20972C28.4173 -0.00748181 24.549 -0.32256 21.2224 0.339179ZM18.2161 28.5456C12.7771 29.0496 6.82613 30.0974 2.13568 31.3768L0 31.9593V46.212V60.4647L2.13568 61.0528C5.26809 61.9155 11.0583 63.0305 15.0754 63.5446C19.2874 64.0837 29.9827 64.1622 33.9196 63.6832C38.2633 63.1543 42.5852 62.367 46.3568 61.4172L50 60.4995V46.212V31.9244L46.3568 31.0068C42.6352 30.0696 38.2058 29.2599 34.1709 28.7789C31.1291 28.4165 21.1789 28.2708 18.2161 28.5456ZM27.5126 36.8333C29.0322 37.5207 29.7269 38.2014 30.4329 39.6949C31.8922 42.7822 30.6952 46.1792 27.5442 47.8922L26.7588 48.3193V51.3387V54.3584H25H23.2412V51.3387V48.3193L22.4558 47.8922C19.296 46.1744 18.1123 42.796 19.5734 39.6655C20.9138 36.7937 24.554 35.4953 27.5126 36.8333ZM23.3555 40.6862C22.9015 41.1389 22.7387 41.5723 22.7387 42.3268C22.7387 43.0813 22.9015 43.5147 23.3555 43.9674C23.8093 44.4203 24.2437 44.5827 25 44.5827C26.4143 44.5827 27.2613 43.7377 27.2613 42.3268C27.2613 40.9158 26.4143 40.0709 25 40.0709C24.2437 40.0709 23.8093 40.2333 23.3555 40.6862Z" fill="#1234E8"/>
</svg>
