<svg width="24" height="20" viewBox="0 0 24 20" fill="none" xmlns="http://www.w3.org/2000/svg">
<path fill-rule="evenodd" clip-rule="evenodd" d="M20.5684 0.120534L18.466 0.225767L18.2426 0.479355C18.1196 0.618901 18.0191 0.794688 18.0191 0.870012C18.0191 1.12176 18.2817 1.49802 18.8106 2.00409C19.0988 2.27988 19.3347 2.54843 19.3347 2.60081C19.3347 2.6532 17.4538 4.53199 15.155 6.77593L10.9753 10.8558L8.92904 8.87124C6.72168 6.73042 6.57724 6.63528 5.87657 6.86107C5.65846 6.93135 4.72576 7.78184 2.82325 9.64549C0.477185 11.9435 0.0747877 12.3772 0.0206585 12.6668C-0.0911709 13.2645 0.258601 13.8835 0.886068 14.1983C1.22306 14.3673 1.80128 14.3224 2.10125 14.1037C2.25039 13.9951 3.2498 13.0563 4.32233 12.0173L6.2723 10.1284L8.22226 12.0216C9.2947 13.0629 10.2646 13.9604 10.3775 14.0163C10.6632 14.1576 11.2137 14.1429 11.5161 13.9861C11.6556 13.9137 13.9259 11.7466 16.5612 9.17042L21.3524 4.4863L21.9647 5.07678C22.6618 5.7491 22.9586 5.89819 23.2818 5.73837C23.7888 5.48762 23.825 5.3334 23.9397 2.93624C24.0208 1.23911 24.0202 0.637893 23.9372 0.442106C23.8162 0.156865 23.4263 -0.0191048 22.9622 0.0020887C22.8019 0.00942843 21.7248 0.0627333 20.5684 0.120534ZM19.5452 8.26975L17.7372 10.0368V14.8296C17.7372 19.5003 17.742 19.6273 17.9251 19.8061C18.0983 19.9752 18.2383 19.9896 19.7106 19.9896C21.1829 19.9896 21.3229 19.9752 21.4961 19.8061C21.6805 19.6261 21.6841 19.5003 21.6841 13.1728C21.6841 6.83795 21.6701 6.5028 21.4059 6.5028C21.3771 6.5028 20.5398 7.29797 19.5452 8.26975ZM14.2836 13.3994L12.3806 15.2387V17.4713C12.3806 19.6744 12.3834 19.7058 12.5895 19.8467C12.8634 20.0341 15.8204 20.0579 16.0758 19.8749C16.2231 19.7694 16.2339 19.4331 16.2113 15.6601L16.1866 11.5601L14.2836 13.3994ZM7.02409 16.2979C7.02409 19.6661 7.03105 19.8032 7.20584 19.8946C7.31062 19.9493 8.0611 19.9896 8.97678 19.9896C10.397 19.9896 10.5825 19.9718 10.7215 19.8218C10.8564 19.6763 10.877 19.3844 10.877 17.6274V15.6009L10.3999 15.501C10.1376 15.4461 9.83092 15.3545 9.71862 15.2975C9.60632 15.2406 8.95404 14.6545 8.26925 13.9951L7.02409 12.7962V16.2979ZM4.20345 14.0785C3.01656 15.2453 2.61548 15.5298 1.97448 15.6598L1.62057 15.7314L1.5952 17.6752C1.5625 20.1861 1.39672 19.9896 3.54704 19.9896C5.01934 19.9896 5.15936 19.9752 5.33255 19.8061C5.51364 19.6293 5.5205 19.5003 5.5205 16.2738C5.5205 14.432 5.48818 12.9251 5.44861 12.9251C5.40905 12.9251 4.84878 13.4441 4.20345 14.0785Z" fill="#1234E8"/>
</svg>
