<svg width="158" height="43" viewBox="0 0 158 43" fill="none" xmlns="http://www.w3.org/2000/svg">
<path d="M98.1022 2.17698V7.58204L93.7183 2.17698H92.503V10.1591H93.9681V4.75408L98.3521 10.1591H99.5673V2.17698H98.1022Z" fill="#1234E8"/>
<path d="M104.287 10.239C106.172 10.239 107.524 8.93901 107.524 7.11451C107.524 5.29002 106.172 4.00147 104.287 4.00147C102.424 4.00147 101.062 5.29002 101.062 7.11451C101.062 8.93901 102.424 10.239 104.287 10.239ZM104.287 9.01883C103.265 9.01883 102.493 8.27763 102.493 7.11451C102.493 5.9514 103.265 5.2102 104.287 5.2102C105.321 5.2102 106.093 5.9514 106.093 7.11451C106.093 8.27763 105.321 9.01883 104.287 9.01883Z" fill="#1234E8"/>
<path d="M110.233 4.95933V4.06989H108.881V10.1591H110.301V7.20574C110.301 5.9628 110.983 5.32423 112.061 5.32423C112.164 5.32423 112.266 5.33563 112.391 5.35844V4.00147C111.38 4.00147 110.642 4.32076 110.233 4.95933Z" fill="#1234E8"/>
<path d="M118.06 1.69805V4.82249C117.583 4.26374 116.89 4.00147 116.106 4.00147C114.346 4.00147 113.04 5.2216 113.04 7.11451C113.04 9.00743 114.346 10.239 116.106 10.239C116.936 10.239 117.64 9.95388 118.117 9.37233V10.1591H119.48V1.69805H118.06ZM116.277 9.01883C115.255 9.01883 114.471 8.27763 114.471 7.11451C114.471 5.9514 115.255 5.2102 116.277 5.2102C117.299 5.2102 118.083 5.9514 118.083 7.11451C118.083 8.27763 117.299 9.01883 116.277 9.01883Z" fill="#1234E8"/>
<path d="M122.052 3.06642C122.586 3.06642 122.961 2.67871 122.961 2.17698C122.961 1.70945 122.575 1.35596 122.052 1.35596C121.53 1.35596 121.144 1.73226 121.144 2.21119C121.144 2.69012 121.53 3.06642 122.052 3.06642ZM121.337 10.1591H122.756V4.06989H121.337V10.1591Z" fill="#1234E8"/>
<path d="M127.402 10.239C128.583 10.239 129.526 9.72582 129.992 8.81357L128.901 8.175C128.538 8.75656 127.993 9.01883 127.391 9.01883C126.346 9.01883 125.551 8.30044 125.551 7.11451C125.551 5.94 126.346 5.2102 127.391 5.2102C127.993 5.2102 128.538 5.47247 128.901 6.05403L129.992 5.41546C129.526 4.49181 128.583 4.00147 127.402 4.00147C125.483 4.00147 124.12 5.29002 124.12 7.11451C124.12 8.93901 125.483 10.239 127.402 10.239Z" fill="#1234E8"/>
<path d="M98.4543 25.6122H99.9989L96.41 17.6301H94.9562L91.3787 25.6122H92.9005L93.6842 23.7649H97.6593L98.4543 25.6122ZM94.1839 22.6018L95.6717 19.1125L97.1709 22.6018H94.1839Z" fill="#1234E8"/>
<path d="M102.692 25.692C104.396 25.692 105.441 24.9508 105.441 23.8105C105.441 21.4273 101.693 22.522 101.693 21.2905C101.693 20.8913 102.102 20.6063 102.965 20.6063C103.544 20.6063 104.123 20.7203 104.702 21.0624L105.248 19.9791C104.702 19.6484 103.782 19.4546 102.976 19.4546C101.341 19.4546 100.307 20.2072 100.307 21.3589C100.307 23.7877 104.055 22.693 104.055 23.8562C104.055 24.2781 103.68 24.5289 102.783 24.5289C102.022 24.5289 101.204 24.2781 100.671 23.9246L100.125 25.0079C100.671 25.3956 101.681 25.692 102.692 25.692Z" fill="#1234E8"/>
<path d="M108.537 25.692C110.241 25.692 111.286 24.9508 111.286 23.8105C111.286 21.4273 107.538 22.522 107.538 21.2905C107.538 20.8913 107.947 20.6063 108.81 20.6063C109.389 20.6063 109.968 20.7203 110.547 21.0624L111.093 19.9791C110.547 19.6484 109.627 19.4546 108.821 19.4546C107.186 19.4546 106.152 20.2072 106.152 21.3589C106.152 23.7877 109.9 22.693 109.9 23.8562C109.9 24.2781 109.525 24.5289 108.628 24.5289C107.867 24.5289 107.049 24.2781 106.516 23.9246L105.97 25.0079C106.516 25.3956 107.526 25.692 108.537 25.692Z" fill="#1234E8"/>
<path d="M115.234 25.692C117.119 25.692 118.471 24.3921 118.471 22.5676C118.471 20.7431 117.119 19.4546 115.234 19.4546C113.371 19.4546 112.009 20.7431 112.009 22.5676C112.009 24.3921 113.371 25.692 115.234 25.692ZM115.234 24.4719C114.212 24.4719 113.44 23.7307 113.44 22.5676C113.44 21.4045 114.212 20.6633 115.234 20.6633C116.267 20.6633 117.04 21.4045 117.04 22.5676C117.04 23.7307 116.267 24.4719 115.234 24.4719Z" fill="#1234E8"/>
<path d="M122.611 25.692C123.792 25.692 124.735 25.1789 125.2 24.2667L124.11 23.6281C123.747 24.2096 123.201 24.4719 122.6 24.4719C121.555 24.4719 120.76 23.7535 120.76 22.5676C120.76 21.3931 121.555 20.6633 122.6 20.6633C123.201 20.6633 123.747 20.9256 124.11 21.5071L125.2 20.8685C124.735 19.9449 123.792 19.4546 122.611 19.4546C120.692 19.4546 119.329 20.7431 119.329 22.5676C119.329 24.3921 120.692 25.692 122.611 25.692Z" fill="#1234E8"/>
<path d="M127.143 18.5195C127.677 18.5195 128.052 18.1318 128.052 17.6301C128.052 17.1625 127.666 16.809 127.143 16.809C126.621 16.809 126.235 17.1853 126.235 17.6643C126.235 18.1432 126.621 18.5195 127.143 18.5195ZM126.428 25.6122H127.847V19.523H126.428V25.6122Z" fill="#1234E8"/>
<path d="M132.027 19.4546C131.051 19.4546 130.108 19.7054 129.461 20.2072L130.017 21.2448C130.471 20.8685 131.176 20.6405 131.857 20.6405C132.868 20.6405 133.368 21.1308 133.368 21.9632V22.0545H131.8C129.96 22.0545 129.279 22.8527 129.279 23.8676C129.279 24.928 130.153 25.692 131.539 25.692C132.448 25.692 133.106 25.3956 133.447 24.871V25.6122H134.787V22.0431C134.787 20.287 133.776 19.4546 132.027 19.4546ZM131.834 24.6544C131.108 24.6544 130.676 24.3237 130.676 23.8105C130.676 23.3658 130.937 23.0009 131.903 23.0009H133.368V23.7079C133.129 24.3351 132.527 24.6544 131.834 24.6544Z" fill="#1234E8"/>
<path d="M139.857 24.2667C139.642 24.4377 139.358 24.5175 139.062 24.5175C138.517 24.5175 138.222 24.1982 138.222 23.6053V20.7089H139.846V19.5686H138.222V18.1774H136.802V19.5686H135.803V20.7089H136.802V23.6395C136.802 24.9851 137.563 25.692 138.892 25.692C139.403 25.692 139.914 25.5552 140.255 25.2815L139.857 24.2667Z" fill="#1234E8"/>
<path d="M142.138 18.5195C142.672 18.5195 143.047 18.1318 143.047 17.6301C143.047 17.1625 142.661 16.809 142.138 16.809C141.616 16.809 141.23 17.1853 141.23 17.6643C141.23 18.1432 141.616 18.5195 142.138 18.5195ZM141.423 25.6122H142.842V19.523H141.423V25.6122Z" fill="#1234E8"/>
<path d="M147.432 25.692C149.317 25.692 150.668 24.3921 150.668 22.5676C150.668 20.7431 149.317 19.4546 147.432 19.4546C145.569 19.4546 144.206 20.7431 144.206 22.5676C144.206 24.3921 145.569 25.692 147.432 25.692ZM147.432 24.4719C146.409 24.4719 145.637 23.7307 145.637 22.5676C145.637 21.4045 146.409 20.6633 147.432 20.6633C148.465 20.6633 149.237 21.4045 149.237 22.5676C149.237 23.7307 148.465 24.4719 147.432 24.4719Z" fill="#1234E8"/>
<path d="M155.467 19.4546C154.581 19.4546 153.843 19.751 153.377 20.3098V19.523H152.026V25.6122H153.446V22.5334C153.446 21.3133 154.127 20.6975 155.138 20.6975C156.046 20.6975 156.58 21.222 156.58 22.3053V25.6122H158V22.1229C158 20.287 156.921 19.4546 155.467 19.4546Z" fill="#1234E8"/>
<path d="M95.0925 40.6466C96.9778 40.6466 98.3293 39.3467 98.3293 37.5222C98.3293 35.6977 96.9778 34.4092 95.0925 34.4092C93.2299 34.4092 91.867 35.6977 91.867 37.5222C91.867 39.3467 93.2299 40.6466 95.0925 40.6466ZM95.0925 39.4265C94.0703 39.4265 93.298 38.6853 93.298 37.5222C93.298 36.3591 94.0703 35.6179 95.0925 35.6179C96.126 35.6179 96.8983 36.3591 96.8983 37.5222C96.8983 38.6853 96.126 39.4265 95.0925 39.4265Z" fill="#1234E8"/>
<path d="M102.151 33.1776C102.447 33.1776 102.719 33.2803 102.935 33.4285L103.333 32.3566C103.015 32.1285 102.538 32.0259 102.049 32.0259C100.641 32.0259 99.88 32.8583 99.88 34.1355V34.5232H98.8805V35.6635H99.88V40.5668H101.3V35.6635H102.924V34.5232H101.254V34.1583C101.254 33.5083 101.561 33.1776 102.151 33.1776Z" fill="#1234E8"/>
<path d="M112.788 36.4161C113.401 36.0854 113.81 35.4811 113.81 34.66C113.81 33.3943 112.788 32.5847 110.88 32.5847H107.154V40.5668H111.107C113.151 40.5668 114.219 39.7686 114.219 38.4002C114.219 37.3626 113.639 36.6898 112.788 36.4161ZM110.721 33.7478C111.743 33.7478 112.322 34.1127 112.322 34.8539C112.322 35.5837 111.743 35.9486 110.721 35.9486H108.631V33.7478H110.721ZM111.016 39.4037H108.631V37.1003H111.016C112.129 37.1003 112.731 37.4538 112.731 38.252C112.731 39.0502 112.129 39.4037 111.016 39.4037Z" fill="#1234E8"/>
<path d="M117.01 35.367V34.4776H115.658V40.5668H117.078V37.6134C117.078 36.3705 117.759 35.7319 118.838 35.7319C118.94 35.7319 119.043 35.7433 119.168 35.7661V34.4092C118.157 34.4092 117.418 34.7284 117.01 35.367Z" fill="#1234E8"/>
<path d="M123.042 40.6466C124.927 40.6466 126.279 39.3467 126.279 37.5222C126.279 35.6977 124.927 34.4092 123.042 34.4092C121.18 34.4092 119.817 35.6977 119.817 37.5222C119.817 39.3467 121.18 40.6466 123.042 40.6466ZM123.042 39.4265C122.02 39.4265 121.248 38.6853 121.248 37.5222C121.248 36.3591 122.02 35.6179 123.042 35.6179C124.076 35.6179 124.848 36.3591 124.848 37.5222C124.848 38.6853 124.076 39.4265 123.042 39.4265Z" fill="#1234E8"/>
<path d="M132.214 40.5668H133.94L131.169 37.0319L133.701 34.4776H131.998L129.056 37.2143V32.1057H127.637V40.5668H129.056V38.959L130.112 37.9555L132.214 40.5668Z" fill="#1234E8"/>
<path d="M140.303 37.5564C140.303 35.6521 139.008 34.4092 137.237 34.4092C135.431 34.4092 134.102 35.7091 134.102 37.5222C134.102 39.3353 135.419 40.6466 137.452 40.6466C138.497 40.6466 139.349 40.3046 139.894 39.6546L139.133 38.7765C138.702 39.2213 138.168 39.4379 137.487 39.4379C136.43 39.4379 135.692 38.8678 135.522 37.9783H140.28C140.292 37.8415 140.303 37.6704 140.303 37.5564ZM137.237 35.5495C138.168 35.5495 138.838 36.1538 138.952 37.0319H135.51C135.647 36.1424 136.317 35.5495 137.237 35.5495Z" fill="#1234E8"/>
<path d="M143.018 35.367V34.4776H141.667V40.5668H143.086V37.6134C143.086 36.3705 143.768 35.7319 144.847 35.7319C144.949 35.7319 145.051 35.7433 145.176 35.7661V34.4092C144.165 34.4092 143.427 34.7284 143.018 35.367Z" fill="#1234E8"/>
<path d="M148.277 40.6466C149.98 40.6466 151.025 39.9054 151.025 38.7651C151.025 36.3819 147.277 37.4766 147.277 36.2451C147.277 35.8459 147.686 35.5609 148.549 35.5609C149.128 35.5609 149.708 35.6749 150.287 36.017L150.832 34.9337C150.287 34.603 149.367 34.4092 148.561 34.4092C146.925 34.4092 145.892 35.1618 145.892 36.3135C145.892 38.7423 149.64 37.6476 149.64 38.8108C149.64 39.2327 149.265 39.4835 148.368 39.4835C147.607 39.4835 146.789 39.2327 146.255 38.8792L145.71 39.9625C146.255 40.3502 147.266 40.6466 148.277 40.6466Z" fill="#1234E8"/>
<path d="M66.6208 5.6688C64.463 2.0024 59.6494 0.00255358 54.5039 0.00255358C42.387 -0.164104 33.0088 7.8353 33.0088 21.501C33.0088 35.0833 41.889 43.0827 54.1719 42.9994C58.1556 42.916 64.048 41.2495 66.7868 36.9165L67.4507 42.0828H78.2398C78.2398 28.4171 78.2398 14.5848 78.2398 0.919151L67.0358 0.919151L66.6208 5.6688ZM55.7488 10.5851C62.8861 10.5851 66.6208 16.0014 66.6208 21.9176C66.6208 27.0839 62.4712 32.3335 55.7488 32.3335C49.7733 32.3335 44.9597 28.3338 44.9597 21.501C44.9597 14.6681 49.7733 10.5851 55.7488 10.5851Z" fill="url(#paint0_linear_185_628)"/>
<path d="M10.2517 11.4232C5.28204 10.1818 10.2517 39.7551 10.2517 39.7551H2.979V3.24487C13.0154 3.24487 21.5851 6.85939 28.6881 14.0884C29.9245 15.3541 28.3774 17.995 32.07 17.995C35.7625 17.995 32.07 3.24487 32.07 3.24487H39.3427V39.7551H32.07C32.07 31.8446 29.2336 25.005 23.5609 19.2364C19.6578 15.2689 15.2214 12.6645 10.2517 11.4232Z" fill="#111111"/>
<path fill-rule="evenodd" clip-rule="evenodd" d="M13.1891 39.2586L13.7753 42.747H0V0.254883H2.97891C13.7153 0.254883 22.9715 4.11982 30.5878 11.7656C30.5615 11.5144 30.5318 11.2568 30.4989 10.9938C30.282 9.26053 29.953 7.50329 29.6735 6.16368C29.5346 5.49793 29.4098 4.94423 29.3204 4.5594C29.2757 4.36715 29.2399 4.21751 29.2157 4.11762C29.2037 4.06769 29.1945 4.03023 29.1885 4.00613L29.1821 3.98014L29.1808 3.9749L29.1807 3.97439L28.2495 0.254883H42.3215V42.747H29.091V39.7561C29.091 32.6539 26.5786 26.5634 21.4414 21.3391M32.7291 6.23672C32.3791 4.4811 32.0699 3.2458 32.0699 3.2458H39.3426V39.7561H32.0699C32.0699 31.8455 29.2335 25.0059 23.5608 19.2373C19.6577 15.2698 15.2214 12.6654 10.2517 11.4241C6.26266 10.4277 8.67729 29.2841 9.78563 36.7651C10.0581 38.6044 10.2517 39.7561 10.2517 39.7561H2.97891V3.2458C3.98667 3.2458 4.97964 3.28225 5.95783 3.35513C14.7215 4.00812 22.2982 7.58619 28.688 14.0893C29.1166 14.528 29.2107 15.1319 29.3045 15.7338C29.4814 16.8685 29.6571 17.9959 32.0699 17.9959C34.6938 17.9959 33.5886 10.5477 32.7291 6.23672ZM13.1891 39.2586L13.1762 39.1811C13.1674 39.1278 13.1542 39.0475 13.137 38.9421C13.1027 38.7313 13.0527 38.4202 12.9906 38.0234C12.8664 37.2297 12.694 36.0945 12.5023 34.7353C12.1181 32.0112 11.6601 28.4121 11.3559 24.8678C11.0478 21.2778 10.9138 17.9168 11.122 15.5955C11.1486 15.298 11.1795 15.0378 11.212 14.8119C14.9422 16.0405 18.3474 18.1941 21.441 21.3387M11.4951 13.6108C11.5028 13.5973 11.5022 13.5963 11.4951 13.6108C11.4951 13.6109 11.4952 13.6106 11.4951 13.6108Z" fill="#111111"/>
<defs>
<linearGradient id="paint0_linear_185_628" x1="78.2398" y1="21.5" x2="33.0088" y2="21.5" gradientUnits="userSpaceOnUse">
<stop stop-color="#1234E8"/>
<stop offset="1" stop-color="#010E52"/>
</linearGradient>
</defs>
</svg>
