<svg width="24" height="20" viewBox="0 0 24 20" fill="none" xmlns="http://www.w3.org/2000/svg">
<path fill-rule="evenodd" clip-rule="evenodd" d="M9.31078 0.185992C7.83844 0.620804 6.44719 1.40455 5.32922 2.42896C4.76888 2.94243 3.9375 3.91893 3.9375 4.06368C3.9375 4.09762 4.81294 4.1248 5.88281 4.12424L7.82812 4.12302L8.08509 3.48796C8.39447 2.72352 9.20906 1.3259 9.79237 0.558929C10.2717 -0.0714463 10.2471 -0.090571 9.31078 0.185992ZM14.2076 0.558929C14.7909 1.3259 15.6055 2.72352 15.9149 3.48796L16.1719 4.12302L18.1172 4.12424C19.1872 4.1248 20.0625 4.09762 20.0625 4.06368C20.0625 3.91837 19.2298 2.94112 18.6626 2.42099C17.5132 1.36668 16.1636 0.615929 14.6253 0.174929C14.2903 0.0789287 13.9637 0.000366211 13.8996 0.000366211C13.8353 0.000366211 13.974 0.25171 14.2076 0.558929ZM11.4734 0.70171C10.856 1.41684 10.1711 2.44415 9.73997 3.30158C9.53925 3.70077 9.375 4.04952 9.375 4.07643C9.375 4.10333 10.5562 4.12537 12 4.12537C13.4438 4.12537 14.625 4.10333 14.625 4.07643C14.625 3.93299 13.8327 2.48399 13.4326 1.89562C12.9053 1.12021 12.1232 0.187866 12 0.187866C11.9543 0.187866 11.7174 0.419054 11.4734 0.70171ZM0 9.65662V13.7816H12H24V9.65662V5.53162H12H0V9.65662ZM12.4639 7.99255C12.5846 8.62424 12.7122 9.22134 12.7476 9.31949C12.7917 9.4423 12.9247 9.11015 13.1741 8.25487C13.3734 7.57115 13.5881 6.99187 13.6511 6.96777C13.7141 6.94358 13.9447 6.95915 14.1634 7.00237L14.5611 7.08102L14.9108 8.29855C15.103 8.96812 15.2839 9.45271 15.3127 9.37537C15.3413 9.29802 15.4542 8.77068 15.5634 8.20349C15.8471 6.73049 15.7626 6.86137 16.3606 6.96974C16.6435 7.02102 16.8732 7.10868 16.871 7.16446C16.8687 7.22034 16.6473 8.34177 16.3788 9.65662L15.8906 12.0472H15.3781H14.8656L14.4867 10.7183C14.2784 9.98746 14.0831 9.36477 14.0529 9.33459C14.0228 9.3043 13.8148 9.91293 13.5909 10.6868L13.1839 12.0941H12.692C12.3041 12.0941 12.1901 12.0594 12.1526 11.9301C12.1265 11.8398 11.9102 10.7746 11.6719 9.56287C11.4336 8.35115 11.2192 7.29196 11.1954 7.20918C11.1618 7.09199 11.2615 7.03762 11.6464 6.96374C11.9183 6.91152 12.164 6.86324 12.1925 6.8564C12.221 6.84965 12.3431 7.36087 12.4639 7.99255ZM5.36719 8.41368L6.28125 9.88162V8.40974V6.93787H6.84375H7.40625V9.46912V12.0004L6.86719 11.9986L6.32812 11.9969L5.4375 10.5702L4.54688 9.14362L4.52109 10.6189L4.49522 12.0941H3.93516H3.375V9.51599V6.93787L3.91406 6.9418L4.45312 6.94574L5.36719 8.41368ZM10.7812 7.44983V7.9618L9.96094 7.9889L9.14062 8.01599L9.11231 8.50818L9.08391 9.00037H9.88575H10.6875V9.51599V10.0316H9.89062H9.09375V10.5004V10.9691H9.9375H10.7812V11.5316V12.0941H9.42188H8.0625V9.51599V6.93787H9.42188H10.7812V7.44983ZM19.7634 7.17149C20.3044 7.4233 20.3052 7.43062 19.8537 7.95993L19.5981 8.25965L19.1506 8.10421C18.591 7.90987 18.1559 8.02883 18.2045 8.36305C18.2278 8.52412 18.4171 8.64674 19.0715 8.9248C20.0376 9.33524 20.2812 9.53352 20.4894 10.0786C20.8647 11.0613 19.9961 12.0914 18.7905 12.0936C18.3527 12.0944 17.6113 11.8429 17.2969 11.5869L17.0156 11.358L17.3837 10.9786L17.7517 10.5993L18.0605 10.7901C18.4519 11.0319 19.0687 11.0492 19.3162 10.825C19.6444 10.5281 19.5492 10.3242 18.9609 10.0641C17.4876 9.41277 17.4256 9.37218 17.2308 8.93184C16.6223 7.55643 18.214 6.45018 19.7634 7.17149ZM3.9375 15.2496C3.9375 15.3943 4.76888 16.3708 5.32922 16.8843C6.1155 17.6047 7.08141 18.2398 7.99331 18.6358C8.69062 18.9386 9.85547 19.3129 10.1004 19.3129C10.1647 19.3129 10.026 19.0615 9.79237 18.7543C9.20906 17.9873 8.39447 16.5897 8.08509 15.8253L7.82812 15.1902L5.88281 15.189C4.81294 15.1884 3.9375 15.2156 3.9375 15.2496ZM9.375 15.2371C9.375 15.2642 9.52725 15.5911 9.71334 15.9636C10.1525 16.8426 10.938 18.0068 11.5304 18.6566L12.0005 19.1722L12.4715 18.6595C13.0546 18.0246 13.8393 16.8591 14.2867 15.9636C14.4727 15.5911 14.625 15.2642 14.625 15.2371C14.625 15.21 13.4438 15.1879 12 15.1879C10.5562 15.1879 9.375 15.21 9.375 15.2371ZM15.9149 15.8253C15.6055 16.5897 14.7909 17.9873 14.2076 18.7543C13.974 19.0615 13.8353 19.3129 13.8996 19.3129C13.9637 19.3129 14.2903 19.2343 14.6253 19.1383C16.1636 18.6973 17.5132 17.9466 18.6626 16.8922C19.2298 16.3721 20.0625 15.3949 20.0625 15.2496C20.0625 15.2156 19.1872 15.1884 18.1172 15.189L16.1719 15.1902L15.9149 15.8253Z" fill="#1234E8"/>
</svg>
