<svg width="24" height="24" viewBox="0 0 24 24" fill="none" xmlns="http://www.w3.org/2000/svg">
<path fill-rule="evenodd" clip-rule="evenodd" d="M10.7649 0.0402137C10.6873 0.0554358 10.3064 0.118579 9.91836 0.180595C6.3237 0.755464 2.98818 3.2113 1.29027 6.533C0.326421 8.41847 -0.00336045 9.8206 2.57731e-05 12.0181C0.00331793 14.2313 0.332064 15.6287 1.29027 17.5032C2.94905 20.7485 5.96673 23.0281 9.65799 23.8243C10.7515 24.0601 13.2326 24.0582 14.3355 23.8206C19.172 22.7786 22.7971 19.1583 23.7923 14.376C24.0031 13.3629 24.0698 11.8396 23.9158 11.5573C23.6021 10.9829 22.8386 10.7734 22.3127 11.1176C21.9837 11.3329 21.8965 11.6118 21.7814 12.8168C21.6548 14.1423 21.3894 15.1404 20.8817 16.1995C17.8955 22.4288 9.75666 23.7858 4.96526 18.8533C3.72411 17.5756 2.90183 16.1621 2.49219 14.6021C1.56484 11.0703 2.54515 7.52357 5.14539 5.00299C6.84706 3.35346 8.63122 2.51155 11.0001 2.24018C11.832 2.14481 13.4927 2.20795 13.4927 2.3349C13.4927 2.37051 13.1532 2.53964 12.7383 2.71075C11.8217 3.08877 11.5174 3.40279 11.5174 3.97052C11.5174 4.18767 11.5834 4.45951 11.6642 4.57461C11.8795 4.88169 12.3451 5.09263 12.6842 5.03663C13.0698 4.97302 17.2522 3.20491 17.4798 3.00927C17.9209 2.63013 17.9874 1.89769 17.6168 1.50022C17.1793 1.03097 15.2897 0.354616 13.7828 0.127694C13.002 0.0100514 11.1875 -0.0424743 10.7649 0.0402137ZM7.21747 7.45018C5.8817 7.88786 5.21527 8.77103 5.21527 10.1037C5.21527 10.8144 5.40199 11.0785 5.90437 11.0785C6.35474 11.0785 6.6262 10.7584 6.62639 10.2268C6.62667 9.31836 7.17542 8.82214 8.17671 8.82487C9.19455 8.82769 9.82382 9.39353 9.82411 10.3063C9.82439 11.089 9.58406 11.4003 8.03712 12.6207C6.33451 13.964 5.18395 15.3212 5.18395 15.9864C5.18395 16.1853 5.26419 16.3452 5.43999 16.4962C5.69555 16.7158 5.70176 16.7163 8.36634 16.7163C11.0026 16.7163 11.0397 16.7136 11.2735 16.5049C11.6579 16.1617 11.6816 15.8323 11.3461 15.4971L11.0616 15.2129H9.20104H7.3405L7.71233 14.8281C7.91682 14.6165 8.52888 14.0933 9.07236 13.6655C10.1219 12.8393 10.755 12.2107 10.9813 11.7704C11.0574 11.6224 11.1714 11.251 11.2345 10.9451C11.6265 9.04531 10.3552 7.46352 8.35232 7.35885C7.87778 7.33404 7.47219 7.36665 7.21747 7.45018ZM16.5799 7.41767C16.4355 7.50186 11.9582 12.8862 11.5845 13.425C11.3707 13.7332 11.3811 14.0064 11.6183 14.3075L11.8132 14.5551H14.0169H16.2205V15.3904C16.2205 16.4054 16.362 16.6599 16.9259 16.6599C17.4899 16.6599 17.6314 16.4054 17.6314 15.3904V14.5551H18.0119C18.7221 14.5551 19.0752 13.9214 18.6592 13.3933C18.5011 13.1924 18.3857 13.1457 18.0478 13.1457H17.6314V10.4276V7.70943L17.3836 7.51473C17.1168 7.30501 16.8322 7.27071 16.5799 7.41767ZM16.2205 11.6423V13.1457H14.9899C14.2615 13.1457 13.772 13.1096 13.7906 13.0573C13.8287 12.9499 16.135 10.1389 16.185 10.1389C16.2045 10.1389 16.2205 10.8154 16.2205 11.6423Z" fill="#1234E8"/>
</svg>
